<?xml version="1.0" encoding="utf-8"?>
<!-- Generator: Adobe Illustrator 26.5.0, SVG Export Plug-In . SVG Version: 6.00 Build 0)  -->
<svg version="1.1" id="Layer_1" xmlns="http://www.w3.org/2000/svg" xmlns:xlink="http://www.w3.org/1999/xlink" x="0px" y="0px"
	 viewBox="0 0 1600 150" style="enable-background:new 0 0 1600 150;" xml:space="preserve">
<style type="text/css">
	.st0{fill:#C5D3C5;}
	.st1{fill:#DCEADC;}
</style>
<g>
	<path class="st0" d="M1111,81.5c0.1-0.2,0.3-0.7,0.4-0.9c1.1-0.1,3.3,1.2,3.3,1.2c-0.9-1-3.1-1.7-3.1-1.7c0.3-0.6,1.7-1.6,3.2-1.4
		c2.6,0.2,1.6,3.7,4.5,6.3C1117.3,85.4,1109,85.8,1111,81.5C1111,81.5,1111,81.5,1111,81.5z M1116.5,100c1.6,0,2.9-0.2,2.9-0.2
		c-2.9-2.6-1.9-6.1-4.5-6.3c-1.5-0.2-2.9,0.8-3.2,1.4c0,0,2.2,0.7,3.1,1.7c0,0-2.3-1.3-3.3-1.2C1109.2,99.3,1112.8,100,1116.5,100z
		 M976.8,115.7c-1.6-1.5,9.7-4,9.3-1.9c0.2-0.2,0.2-0.5,0.1-1.1c-0.5-2.6-3.3-4.1-5.9-3.6c-2.7,0.5-4.6,3-4.1,5.5
		C976.4,115.2,976.6,115.5,976.8,115.7z M1059.9,97.5c-0.1-1.6,10.4-1.7,9.5,0.2c0.2-0.2,0.3-0.5,0.3-1.1c0-2.6-2.3-4.6-5.1-4.6
		c-2.8,0-5.1,2.1-5.1,4.6c0,0.6,0.1,0.9,0.4,1.1C1059.9,97.6,1059.9,97.6,1059.9,97.5z M1066.7,101.1c0,0.4,0.1,0.6,0.2,0.6
		c-0.6-1.2,6.3-1.2,5.7,0c0.1-0.1,0.2-0.3,0.2-0.6C1072.7,97.4,1066.8,97.4,1066.7,101.1z M1101.2,245.5 M918.7,128.2 M918.7,128.2
		v7H1195v-19.1c-21.8-5.4-44-10.7-85.1-11.3c-3.1,0-5.6-2.7-5.5-5.8c0.7-2.8,3.4-3.9,6.7-2.8l0.4-0.9c-1.2-0.6-5.3-1.5-7.1,0.7v-3.3
		c0.1,0,0.1,0.1,0.2,0.1l-0.2-0.2v-8.4c0.7-2.8,3.4-3.9,6.7-2.8c0,0,0,0,0,0c0.1-0.2,0.3-0.7,0.4-0.9c-1.2-0.6-5.3-1.5-7.1,0.7v-2.8
		c1.1-5.5,4.2-7.3,6.1-7.8c-1.9,6.5,11.5,5.5,14.6,5c-4.9-4.4-3.4-10.3-7.8-10.6c-2.7-0.3-4.8,1.4-5.4,2.4c0,0,3.8,1.1,5.3,2.7
		c0,0-3.4-2.2-5.2-2.1l0,0c-5.9,0.1-8.1,5.7-8.1,5.7c-1.1-10.8-9.7-10.3-14.7-8.1l0,0c-1.9,0.3-5,2.1-5,2.1c1.5-1.7,5.2-2.8,5.2-2.8
		c-0.6-1-2.9-2.7-5.4-2.3c-4.4,0.3-2.8,6.3-7.6,10.7c3.7,0.5,17.7,1.2,14.1-6.3c9.6-2.9,11.4,5.7,11.3,8.5c0,0,0,8,0,8
		c-0.8-0.8-1.9-1.6-3.6-1.6l0,0c-1-0.1-3,1.2-3,1.2c0.9-1,3.1-1.6,3.1-1.6c-0.3-0.6-1.6-1.6-3.2-1.4c-2.6,0.2-1.7,3.7-4.6,6.3
		c1.8,0.3,9.7,0.8,8.6-3c0.8,0.2,1.9,0.8,2.8,2.3v4.7c-1.6-0.2-3.1,0-4.6,1.5l0,0c-0.8,0.7-1.2,3.1-1.2,3.1
		c-0.1-1.3,0.9-3.4,0.9-3.4c-1.1-0.1-2.1,0-3.2,1.3c-1.7,2,1.5,3.7,1.5,7.6c0,0,7.6-6.1,3.7-8.3c0.6-0.4,1.9-0.7,2.9-0.6v7.5
		c0,3.1-2.5,5.5-5.5,5.6c-8.8,0.1-16.7,0.4-24,0.9c-0.9,0.1-1.8-0.7-1.8-1.6c0-0.6,0-2.2,0-2.8l0.2,0.8c3.1-0.3,2-0.9-0.8-1
		c-2.8,0.1-3.9,0.7-0.9,1l0.2-0.7v0.8c0,0,0,0,0,0c0,0,0,0.2,0,0.2h0v2.1c-0.1,2.2-3.3,2.2-3.3,0c0-1.2,0-6.3,0-7.4l0.3,1.2
		c5.1-0.5,3.4-1.5-1.4-1.6c-4.6,0.1-6.4,1.1-1.5,1.6l0.3-1.2v1.3c0,0,0,0,0,0c0,0.1,0,0.4,0,0.4h0v6.2c0,0.8-0.7,1.6-1.5,1.6
		c-32.1,3-50.3,9.5-73.9,14.6c-2.2,0.5-4.5-1-5-3.3c-0.2-1-0.6-3-0.8-3.9l0.6,1.2c5.9-1.8,1.1-2-1.7-1.3c-5.2,1.2-5.4,2.4-1.2,1.9
		l0.1-1.3l0.2,1.2c0,0,0,0,0,0c0,0.1,0.1,0.3,0.1,0.4l0,0l0.5,2.3c0.5,2.3-1.1,4.5-3.4,4.9C962.3,125.9,944.1,127.9,918.7,128.2"/>
	<path class="st0" d="M568.1,81.5c0.1-0.2,0.3-0.7,0.4-0.9c1.1-0.1,3.3,1.2,3.3,1.2c-0.9-1-3.1-1.7-3.1-1.7c0.3-0.6,1.7-1.6,3.2-1.4
		c2.6,0.2,1.6,3.7,4.5,6.3C574.4,85.4,566.2,85.8,568.1,81.5C568.1,81.5,568.1,81.5,568.1,81.5z M573.6,100c1.6,0,2.9-0.2,2.9-0.2
		c-2.9-2.6-1.9-6.1-4.5-6.3c-1.5-0.2-2.9,0.8-3.2,1.4c0,0,2.2,0.7,3.1,1.7c0,0-2.3-1.3-3.3-1.2C566.4,99.3,569.9,100,573.6,100z
		 M434,115.7c-1.6-1.5,9.7-4,9.3-1.9c0.2-0.2,0.2-0.5,0.1-1.1c-0.5-2.6-3.3-4.1-5.9-3.6c-2.7,0.5-4.6,3-4.1,5.5
		C433.5,115.2,433.7,115.5,434,115.7z M517,97.5c-0.1-1.6,10.4-1.7,9.5,0.2c0.2-0.2,0.3-0.5,0.3-1.1c0-2.6-2.3-4.6-5.1-4.6
		c-2.8,0-5.1,2.1-5.1,4.6c0,0.6,0.1,0.9,0.4,1.1C517,97.6,517,97.6,517,97.5z M523.8,101.1c0,0.4,0.1,0.6,0.2,0.6
		c-0.6-1.2,6.3-1.2,5.7,0c0.1-0.1,0.2-0.3,0.2-0.6C529.8,97.4,523.9,97.4,523.8,101.1z M558.3,245.5 M375.8,128.2 M375.8,128.2v7
		h276.3v-19.1c-21.8-5.4-44-10.7-85.1-11.3c-3.1,0-5.6-2.7-5.5-5.8c0.7-2.8,3.4-3.9,6.7-2.8l0.4-0.9c-1.2-0.6-5.3-1.5-7.1,0.7v-3.3
		c0.1,0,0.1,0.1,0.2,0.1l-0.2-0.2v-8.4c0.7-2.8,3.4-3.9,6.7-2.8c0,0,0,0,0,0c0.1-0.2,0.3-0.7,0.4-0.9c-1.2-0.6-5.3-1.5-7.1,0.7v-2.8
		c1.1-5.5,4.2-7.3,6.1-7.8c-1.9,6.5,11.5,5.5,14.6,5c-4.9-4.4-3.4-10.3-7.8-10.6c-2.7-0.3-4.8,1.4-5.4,2.4c0,0,3.8,1.1,5.3,2.7
		c0,0-3.4-2.2-5.2-2.1l0,0c-5.9,0.1-8.1,5.7-8.1,5.7c-1.1-10.8-9.7-10.3-14.7-8.1l0,0c-1.9,0.3-5,2.1-5,2.1c1.5-1.7,5.2-2.8,5.2-2.8
		c-0.6-1-2.9-2.7-5.4-2.3c-4.4,0.3-2.8,6.3-7.6,10.7c3.7,0.5,17.7,1.2,14.1-6.3c9.6-2.9,11.4,5.7,11.3,8.5c0,0,0,8,0,8
		c-0.8-0.8-1.9-1.6-3.6-1.6l0,0c-1-0.1-3,1.2-3,1.2c0.9-1,3.1-1.6,3.1-1.6c-0.3-0.6-1.6-1.6-3.2-1.4c-2.6,0.2-1.7,3.7-4.6,6.3
		c1.8,0.3,9.7,0.8,8.6-3c0.8,0.2,1.9,0.8,2.8,2.3v4.7c-1.6-0.2-3.1,0-4.6,1.5l0,0c-0.8,0.7-1.2,3.1-1.2,3.1
		c-0.1-1.3,0.9-3.4,0.9-3.4c-1.1-0.1-2.1,0-3.2,1.3c-1.7,2,1.5,3.7,1.5,7.6c0,0,7.6-6.1,3.7-8.3c0.6-0.4,1.9-0.7,2.9-0.6v7.5
		c0,3.1-2.5,5.5-5.5,5.6c-8.8,0.1-16.7,0.4-24,0.9c-0.9,0.1-1.8-0.7-1.8-1.6c0-0.6,0-2.2,0-2.8l0.2,0.8c3.1-0.3,2-0.9-0.8-1
		c-2.8,0.1-3.9,0.7-0.9,1l0.2-0.7v0.8c0,0,0,0,0,0c0,0,0,0.2,0,0.2h0v2.1c-0.1,2.2-3.3,2.2-3.3,0c0-1.2,0-6.3,0-7.4l0.3,1.2
		c5.1-0.5,3.4-1.5-1.4-1.6c-4.6,0.1-6.4,1.1-1.5,1.6l0.3-1.2v1.3c0,0,0,0,0,0c0,0.1,0,0.4,0,0.4h0v6.2c0,0.8-0.7,1.6-1.5,1.6
		c-32.1,3-50.3,9.5-73.9,14.6c-2.2,0.5-4.5-1-5-3.3c-0.2-1-0.6-3-0.8-3.9l0.6,1.2c5.9-1.8,1.1-2-1.7-1.3c-5.2,1.2-5.4,2.4-1.2,1.9
		l0.1-1.3l0.2,1.2c0,0,0,0,0,0c0,0.1,0.1,0.3,0.1,0.4l0,0l0.5,2.3c0.5,2.3-1.1,4.5-3.4,4.9C419.4,125.9,401.2,127.9,375.8,128.2"/>
	<path class="st1" d="M793.8,52.2l0.2-0.4l0.4-1c0.1,0,0.1,0,0.2,0c1.7,0,5.1,2,5.1,2c-1.4-1.6-4.9-2.6-4.9-2.6
		c0.6-0.8,2-2.2,4.5-2.2c0.2,0,0.4,0,0.5,0c4.1,0.3,2.6,5.8,7.1,10c0,0-2,0.3-4.5,0.3C797.9,58.2,791.7,57.3,793.8,52.2
		C793.8,52.2,793.8,52.2,793.8,52.2z M802.5,81.5c2.5,0,4.5-0.3,4.5-0.3c-4.5-4.2-3-9.7-7.1-10c-0.2,0-0.4,0-0.5,0
		c-2.5,0-3.9,1.4-4.5,2.2c0,0,3.5,1,4.9,2.6c0,0-3.4-2-5.1-2c-0.1,0-0.1,0-0.2,0l-0.6,1.5C791.7,80.6,797.9,81.5,802.5,81.5z
		 M582.5,106c-0.1-0.1-0.2-0.2-0.2-0.4c-0.3-1.5,4.5-2.8,7.1-3.3c1.3-0.3,3.3-0.5,5-0.5c1.5,0,2.7,0.2,2.8,0.9c0,0.1,0,0.3,0,0.4
		c0.3-0.3,0.3-0.9,0.2-1.7c-0.7-3.4-3.9-5.8-7.6-5.8c-0.6,0-1.1,0.1-1.7,0.2c-4.3,0.9-7.2,4.7-6.4,8.7
		C581.8,105.4,582.1,105.9,582.5,106z M713.2,77.4c0-1.5,5-1.9,7.6-1.9c2.6,0,7.6,0.4,7.6,1.9c0,0.1,0,0.3-0.1,0.4
		c0.3-0.3,0.5-0.8,0.5-1.7c0-4-3.6-7.3-8-7.3c-4.4,0-8,3.3-8,7.3c0,0.9,0.2,1.5,0.6,1.7C713.3,77.7,713.2,77.6,713.2,77.4z M724,83
		c0,0.6,0.1,0.9,0.3,1c-0.1-0.1-0.1-0.2-0.1-0.2c0-0.9,3-1.1,4.6-1.1c1.6,0,4.6,0.2,4.6,1.1c0,0.1,0,0.2-0.1,0.2
		c0.2-0.2,0.3-0.5,0.3-1c0-2.4-2.1-4.4-4.8-4.4C726.1,78.7,724,80.6,724,83z M399.2,107.5c0.1-1,2.2-1.2,4.4-1.2
		c1.2,0,2.4,0.1,3.4,0.2c2.6,0.3,7.5,1.2,7.3,2.7c0,0.1-0.1,0.2-0.2,0.4c0.3-0.2,0.6-0.7,0.7-1.6c0.4-4-2.7-7.6-7.1-8.1
		c-0.3,0-0.6-0.1-1-0.1c-4,0-7.4,2.7-7.8,6.4c-0.1,0.9,0,1.5,0.4,1.7C399.2,107.8,399.2,107.6,399.2,107.5z M1351.3,50.8l-0.4,1
		l-0.2,0.4c0,0,0,0,0,0c-2.2,5.1,4,5.9,8.7,5.9c2.5,0,4.5-0.3,4.5-0.3c-4.5-4.2-3-9.7-7.1-10c-0.2,0-0.4,0-0.5,0
		c-2.5,0-3.9,1.4-4.5,2.2c0,0,3.5,1,4.9,2.6c0,0-3.4-2-5.1-2C1351.4,50.8,1351.4,50.8,1351.3,50.8z M1359.3,81.5
		c2.5,0,4.5-0.3,4.5-0.3c-4.5-4.2-3-9.7-7.1-10c-0.2,0-0.4,0-0.5,0c-2.5,0-3.9,1.4-4.5,2.2c0,0,3.5,1,4.9,2.6c0,0-3.4-2-5.1-2
		c-0.1,0-0.1,0-0.2,0l-0.6,1.5C1348.5,80.6,1354.7,81.5,1359.3,81.5z M1139.3,106c-0.1-0.1-0.2-0.2-0.2-0.4
		c-0.3-1.5,4.5-2.8,7.1-3.3c1.3-0.3,3.3-0.5,5-0.5c1.5,0,2.7,0.2,2.8,0.9c0,0.1,0,0.3,0,0.4c0.3-0.3,0.3-0.9,0.2-1.7
		c-0.7-3.4-3.9-5.8-7.6-5.8c-0.6,0-1.1,0.1-1.7,0.2c-4.3,0.9-7.2,4.7-6.4,8.7C1138.6,105.4,1138.9,105.9,1139.3,106z M1270.1,77.4
		c0-1.5,5-1.9,7.6-1.9c2.6,0,7.6,0.4,7.6,1.9c0,0.1,0,0.3-0.1,0.4c0.3-0.3,0.5-0.8,0.5-1.7c0-4-3.6-7.3-8-7.3c-4.4,0-8,3.3-8,7.3
		c0,0.9,0.2,1.5,0.6,1.7C1270.1,77.7,1270.1,77.6,1270.1,77.4z M1280.8,83c0,0.6,0.1,0.9,0.3,1c-0.1-0.1-0.1-0.2-0.1-0.2
		c0-0.9,3-1.1,4.6-1.1c1.6,0,4.6,0.2,4.6,1.1c0,0.1,0,0.2-0.1,0.2c0.2-0.2,0.3-0.5,0.3-1c0-2.4-2.1-4.4-4.8-4.4
		C1283,78.7,1280.8,80.6,1280.8,83z M1376,87.2c-11.1,0-21.9,0.2-31.4,0.6c-2.6-1.5-4.4-4.4-4.4-7.6v-0.3c0.7-2.4,2.4-5.1,6.6-5.1
		c1.1,0,2.4,0.2,3.9,0.7l0.6-1.5c0,0-2.6-1.2-5.5-1.2c-2,0-4.1,0.5-5.7,2.3V70c0.1,0.1,0.2,0.1,0.3,0.2l-0.3-0.3V56.6
		c0.7-2.4,2.4-5.1,6.6-5.1c1.1,0,2.4,0.2,3.9,0.7c0,0,0,0,0,0l0.2-0.4l0.4-1c0,0-2.6-1.2-5.5-1.2c-2,0-4.1,0.5-5.7,2.3v-4.4
		c1.7-8.7,6.5-11.5,9.5-12.3c-1.8,7.1,7.1,8.5,14.4,8.5c4.6,0,8.6-0.6,8.6-0.6c-7.7-6.9-5.3-16.3-12.3-16.7c-0.3,0-0.5,0-0.7,0
		c-4.4,0-6.7,2.4-7.8,3.8c0,0,5.9,1.7,8.3,4.3c0,0-5-3.3-7.8-3.3c-0.1,0-0.2,0-0.3,0l0,0c-9.3,0.1-12.8,8.9-12.8,8.9
		c-1.4-12-8-14.8-13.8-14.8c-4.9,0-9.3,2-9.3,2l0,0.1c-3,0.4-7.9,3.3-7.9,3.3c2.3-2.7,8.3-4.4,8.3-4.4c-1-1.4-3.4-3.7-7.6-3.7
		c-0.3,0-0.6,0-0.9,0c-6.9,0.5-4.4,9.8-12,16.9c0,0,3.4,0.4,7.7,0.4c7.8,0,18.3-1.5,14.7-10.1l-0.1-0.2c2.2-0.6,4.1-0.9,5.8-0.9
		c12.3,0,12,14.3,12,14.3v12.6c-1.2-1.3-3.1-2.5-5.7-2.5l0,0c-0.1,0-0.1,0-0.2,0c-1.7,0-4.6,1.9-4.6,1.9c1.4-1.6,4.9-2.5,4.9-2.5
		c-0.6-0.9-2-2.3-4.6-2.3c-0.1,0-0.3,0-0.4,0c-4.1,0.2-2.7,5.8-7.2,9.9c0,0,2.3,0.3,5.1,0.3c4.3,0,9.5-0.8,8.5-5
		c1.2,0.4,3,1.3,4.3,3.6v7.3c-0.4-0.1-0.9-0.1-1.3-0.1c-1.8,0-4,0.5-5.8,2.5l0,0c-1.2,1.1-1.9,4.8-1.9,4.8c-0.2-2.1,1.5-5.3,1.5-5.3
		c-0.2,0-0.5-0.1-0.7-0.1c-1.2,0-2.9,0.4-4.3,2.2c-2.6,3.1,2.4,5.9,2.3,12c0,0,12-9.6,5.8-13c0.8-0.5,2-1,3.6-1c0.3,0,0.6,0,1,0.1
		v11.8c0,4-2.7,7.4-6.5,8.5c-1.7,0.1-3.4,0.2-5,0.4c-12.7,0.2-24.3,0.6-34.9,1.3c-0.1,0-0.1,0-0.2,0c-1.4,0-2.6-1.1-2.6-2.6V85v-1.6
		l0.3,1.2c2-0.1,2.9-0.6,2.9-0.7c0-0.3-1.5-0.8-4.2-0.8c-2.7,0-4.2,0.5-4.2,0.8c0,0.2,0.9,0.6,2.8,0.7l0.3-1.2v1.2c0,0,0,0,0,0
		l0,0.1V85h0v3.3c0,1.4-1,2.5-2.4,2.6l-0.1,0c-0.1,0-0.1,0-0.2,0c-1.4,0-2.6-1.1-2.6-2.6v-9v-2.6l0.5,2c3.4-0.2,4.9-0.9,4.9-1.2
		c0-0.4-2.5-1.3-7-1.3s-7,0.9-7,1.3c0,0.3,1.4,1,4.6,1.2l0.5-2v2c0,0,0,0,0,0l0,0.1v0.5h0V89c0,1.3-1,2.5-2.4,2.6
		c-50.5,4.7-79.2,14.9-116.4,22.9c-0.5,0.1-0.9,0.1-1.4,0.1c-3.1,0-5.8-2.2-6.5-5.3l-0.7-3.7l-0.5-2.6l0.9,1.8
		c3.3-0.9,4.6-1.8,4.5-2.2c0-0.2-0.9-0.5-2.4-0.5c-1.2,0-2.8,0.1-4.7,0.5c-4.4,0.9-6.7,2.2-6.6,2.7c0,0.2,0.8,0.5,2.4,0.5
		c0.7,0,1.5,0,2.4-0.2l0.1-2l0.4,2c0,0,0,0,0,0l0,0.1l0.1,0.5l0,0l0.7,3.6c0.7,3.6-1.7,7.1-5.3,7.7c-22.1,4-48,7-82.8,7.8
		c-4.6-0.1-9-0.3-13.3-0.4c-3.4-1.3-5.8-4.6-5.8-8.4v-5c0.7-2.4,2.4-5.1,6.6-5.1c1.1,0,2.4,0.2,3.9,0.7c-2.2,5.1,4,5.9,8.7,5.9
		c2.5,0,4.5-0.3,4.5-0.3c-4.5-4.2-3-9.7-7.1-10c-0.2,0-0.4,0-0.5,0c-2.5,0-3.9,1.4-4.5,2.2c0,0,3.5,1,4.9,2.6c0,0-3.4-2-5.1-2
		c-0.1,0-0.1,0-0.2,0c0,0-2.6-1.2-5.5-1.2c-2,0-4.1,0.5-5.7,2.3V90.7c1.7-8.7,6.5-11.5,9.5-12.3c-1.8,7.1,7.1,8.5,14.4,8.5
		c4.6,0,8.6-0.6,8.6-0.6c-7.7-6.9-5.3-16.3-12.3-16.7c-0.3,0-0.5,0-0.7,0c-4.4,0-6.7,2.4-7.8,3.8c0,0,5.9,1.7,8.3,4.3
		c0,0-5-3.3-7.8-3.3c-0.1,0-0.2,0-0.3,0l0,0c-9.3,0.1-12.8,8.9-12.8,8.9c-1.4-12-8-14.8-13.8-14.8c-4.9,0-9.3,2-9.3,2l0,0.1
		c-3,0.4-7.9,3.3-7.9,3.3c2.3-2.7,8.3-4.4,8.3-4.4c-1-1.4-3.4-3.7-7.6-3.7c-0.3,0-0.6,0-0.9,0c-6.9,0.5-4.4,9.8-12,16.9
		c0,0,3.4,0.4,7.7,0.4c7.8,0,18.3-1.5,14.7-10.1l-0.1-0.2c2.2-0.6,4.1-0.9,5.8-0.9c12.3,0,12,14.3,12,14.3v24.6
		c-1.2-1.3-3.1-2.5-5.7-2.5l0,0c-0.1,0-0.1,0-0.2,0c-1.7,0-4.6,1.9-4.6,1.9c1.4-1.6,4.9-2.5,4.9-2.5c-0.6-0.9-2-2.3-4.6-2.3
		c-0.1,0-0.3,0-0.4,0c-4.1,0.2-2.7,5.8-7.2,9.9c0,0,2.3,0.3,5.1,0.3c4.3,0,9.5-0.8,8.5-5c1.2,0.4,3,1.3,4.3,3.6v2.5
		c0,5-3.7,7.4-8.6,7.4c-0.5,0-1-0.1-1.4-0.1c-0.3,0-0.5,0-0.7-0.1C928.9,116.7,909.1,90.8,792,89c-4.8-0.1-8.7-4-8.7-8.8v-0.3
		c0.7-2.4,2.4-5.1,6.6-5.1c1.1,0,2.4,0.2,3.9,0.7l0.6-1.5c0,0-2.6-1.2-5.5-1.2c-2,0-4.1,0.5-5.7,2.3V70c0.1,0.1,0.2,0.1,0.3,0.2
		l-0.3-0.3V56.6c0.7-2.4,2.4-5.1,6.6-5.1c1.1,0,2.4,0.2,3.9,0.7c0,0,0,0,0,0l0.2-0.4l0.4-1c0,0-2.6-1.2-5.5-1.2
		c-2,0-4.1,0.5-5.7,2.3v-4.4c1.7-8.7,6.5-11.5,9.5-12.3c-1.8,7.1,7.1,8.5,14.4,8.5c4.6,0,8.6-0.6,8.6-0.6
		c-7.7-6.9-5.3-16.3-12.3-16.7c-0.3,0-0.5,0-0.7,0c-4.4,0-6.7,2.4-7.8,3.8c0,0,5.9,1.7,8.3,4.3c0,0-5-3.3-7.8-3.3
		c-0.1,0-0.2,0-0.3,0l0,0c-9.3,0.1-12.8,8.9-12.8,8.9c-1.4-12-8-14.8-13.8-14.8c-4.9,0-9.3,2-9.3,2l0,0.1c-3,0.4-7.9,3.3-7.9,3.3
		c2.3-2.7,8.3-4.4,8.3-4.4c-1-1.4-3.4-3.7-7.6-3.7c-0.3,0-0.6,0-0.9,0c-6.9,0.5-4.4,9.8-12,16.9c0,0,3.4,0.4,7.7,0.4
		c7.8,0,18.3-1.5,14.7-10.1l-0.1-0.2c2.2-0.6,4.1-0.9,5.8-0.9c12.3,0,12,14.3,12,14.3v12.6c-1.2-1.3-3.1-2.5-5.7-2.5l0,0
		c-0.1,0-0.1,0-0.2,0c-1.7,0-4.6,1.9-4.6,1.9c1.4-1.6,4.9-2.5,4.9-2.5c-0.6-0.9-2-2.3-4.6-2.3c-0.1,0-0.3,0-0.4,0
		c-4.1,0.2-2.7,5.8-7.2,9.9c0,0,2.3,0.3,5.1,0.3c4.3,0,9.5-0.8,8.5-5c1.2,0.4,3,1.3,4.3,3.6v7.3c-0.4-0.1-0.9-0.1-1.3-0.1
		c-1.8,0-4,0.5-5.8,2.5l0,0c-1.2,1.1-1.9,4.8-1.9,4.8c-0.2-2.1,1.5-5.3,1.5-5.3c-0.2,0-0.5-0.1-0.7-0.1c-1.2,0-2.9,0.4-4.3,2.2
		c-2.6,3.1,2.4,5.9,2.3,12c0,0,12-9.6,5.8-13c0.8-0.5,2-1,3.6-1c0.3,0,0.6,0,1,0.1v11.8c0,4.8-3.9,8.7-8.7,8.8
		c-13.8,0.1-26.3,0.6-37.7,1.4c-0.1,0-0.1,0-0.2,0c-1.4,0-2.6-1.1-2.6-2.6V85v-1.6l0.3,1.2c2-0.1,2.9-0.6,2.9-0.7
		c0-0.3-1.5-0.8-4.2-0.8c-2.7,0-4.2,0.5-4.2,0.8c0,0.2,0.9,0.6,2.8,0.7l0.3-1.2v1.2c0,0,0,0,0,0l0,0.1V85h0v3.3c0,1.4-1,2.5-2.4,2.6
		l-0.1,0c-0.1,0-0.1,0-0.2,0c-1.4,0-2.6-1.1-2.6-2.6v-9v-2.6l0.5,2c3.4-0.2,4.9-0.9,4.9-1.2c0-0.4-2.5-1.3-7-1.3c-4.5,0-7,0.9-7,1.3
		c0,0.3,1.4,1,4.6,1.2l0.5-2v2c0,0,0,0,0,0l0,0.1v0.5h0V89c0,1.3-1,2.5-2.4,2.6c-50.5,4.7-79.2,14.9-116.4,22.9
		c-0.5,0.1-0.9,0.1-1.4,0.1c-3.1,0-5.8-2.2-6.5-5.3l-0.7-3.7l-0.5-2.6l0.9,1.8c3.3-0.9,4.6-1.8,4.5-2.2c0-0.2-0.9-0.5-2.4-0.5
		c-1.2,0-2.8,0.1-4.7,0.5c-4.4,0.9-6.7,2.2-6.6,2.7c0,0.2,0.8,0.5,2.4,0.5c0.7,0,1.5,0,2.4-0.2l0.1-2l0.4,2c0,0,0,0,0,0l0,0.1
		l0.1,0.5l0,0l0.7,3.6c0.7,3.6-1.7,7.1-5.3,7.7c-24.1,4.4-52.8,7.6-92.7,8c0,0-0.1,0-0.1,0c-5,0-9.1-4-9.1-9v-5
		c0.7-2.4,2.4-5.1,6.6-5.1c1.1,0,2.4,0.2,3.9,0.7c-2.2,5.1,4,5.9,8.7,5.9c2.5,0,4.5-0.3,4.5-0.3c-4.5-4.2-3-9.7-7.1-10
		c-0.2,0-0.4,0-0.5,0c-2.5,0-3.9,1.4-4.5,2.2c0,0,3.5,1,4.9,2.6c0,0-3.4-2-5.1-2c-0.1,0-0.1,0-0.2,0c0,0-2.6-1.2-5.5-1.2
		c-2,0-4.1,0.5-5.7,2.3V90.7c1.7-8.7,6.5-11.5,9.5-12.3c-1.8,7.1,7.1,8.5,14.4,8.5c4.6,0,8.6-0.6,8.6-0.6
		c-7.7-6.9-5.3-16.3-12.3-16.7c-0.3,0-0.5,0-0.7,0c-4.4,0-6.7,2.4-7.8,3.8c0,0,5.9,1.7,8.3,4.3c0,0-5-3.3-7.8-3.3
		c-0.1,0-0.2,0-0.3,0l0,0c-9.3,0.1-12.8,8.9-12.8,8.9c-1.4-12-8-14.8-13.8-14.8c-4.9,0-9.3,2-9.3,2l0,0.1c-3,0.4-7.9,3.3-7.9,3.3
		c2.3-2.7,8.3-4.4,8.3-4.4c-1-1.4-3.4-3.7-7.6-3.7c-0.3,0-0.6,0-0.9,0c-6.9,0.5-4.4,9.8-12,16.9c0,0,3.4,0.4,7.7,0.4
		c7.8,0,18.3-1.5,14.7-10.1l-0.1-0.2c2.2-0.6,4.1-0.9,5.8-0.9c12.3,0,12,14.3,12,14.3v24.6c-1.2-1.3-3.1-2.5-5.7-2.5l0,0
		c-0.1,0-0.1,0-0.2,0c-1.7,0-4.6,1.9-4.6,1.9c1.4-1.6,4.9-2.5,4.9-2.5c-0.6-0.9-2-2.3-4.6-2.3c-0.1,0-0.3,0-0.4,0
		c-4.1,0.2-2.7,5.8-7.2,9.9c0,0,2.3,0.3,5.1,0.3c4.3,0,9.5-0.8,8.5-5c1.2,0.4,3,1.3,4.3,3.6v2.5c0,5-4.1,9-9,9c-0.1,0-0.1,0-0.2,0
		c-21.1-0.4-39-1.9-54.9-4c-3.6-0.5-6.1-3.7-5.7-7.2l0.5-4.2l0.3-2.6l0.3,2c0.4,0,0.7,0,1.1,0c2.6,0,3.9-0.4,3.9-0.7
		c0-0.4-2.3-1.6-6.8-2.1c-1.2-0.1-2.3-0.2-3.2-0.2c-2.5,0-3.9,0.4-3.9,0.7c0,0.3,1.3,1.1,4.5,1.7l0.7-1.9l-0.2,2c0,0,0,0,0,0l0,0.1
		l-0.1,0.5l0,0l-0.4,3.5c-0.4,3.4-3.3,5.8-6.6,5.8c-0.4,0-0.8,0-1.2-0.1c-63.2-11.1-93.6-32-173.1-32l-2,48h556.9h597.1h3L1376,87.2
		z"/>
</g>
</svg>
